# xmcd
#
# Track frame offsets:
#	182
#	16350
#	31145
#	46367
#	64897
#	81877
#	100070
#	119330
#	133930
#	150622
#	169662
#	185150
#
# Disc length: 2686 seconds
#
# Revision: 4
# Processed by: cddbd v1.5.2PL0 Copyright (c) Steve Scherf et al.
# Submitted via: EZCDAudioConverter 8.2.2.1
#
DISCID=9e0a7c0c
DTITLE=LEANDRO and LEONARDO - MEXE MEXE [CD 207800391) CHANTECLER
DYEAR=1993
DGENRE=SERTANEJO
TTITLE0=BOBO (BY GILMAR SINISTRO)
TTITLE1=MEXE MEXE (BY GILMAR SINISTRO)
TTITLE2=QUEM É (BY GILMAR SINISTRO)
TTITLE3=OUTRA CHANCE (BY GILMAR SINISTRO)
TTITLE4=SEJA BENVINDA (BY GILMAR SINISTRO)
TTITLE5=EM NOME DO AMOR (BY GILMAR SINISTRO)
TTITLE6=QUERO SEU O SEU DONO (BY GILMAR SINISTRO)
TTITLE7=GOSTO DELA (BY GILMAR SINISTRO)
TTITLE8=A VIDA TEM DESSAS COISAS (BY GILMAR SINISTRO)
TTITLE9=UMA HISTORIA SEM FIM (BY GILMAR SINISTRO)
TTITLE10=O QUANTO NOSSO AMOR VALEU (BY GILMAR SINISTRO)
TTITLE11=DIZ QUE ME AMA (BY GILMAR SINISTRO)
EXTD=
EXTT0=
EXTT1=
EXTT2=
EXTT3=
EXTT4=
EXTT5=
EXTT6=
EXTT7=
EXTT8=
EXTT9=
EXTT10=
EXTT11=
PLAYORDER=
